<svg width="26" height="25" viewBox="0 0 26 26" fill="none" xmlns="http://www.w3.org/2000/svg">
<path d="M10.9683 0.67824C11.5445 0.23922 12.2608 0 12.9991 0C13.7374 0 14.4536 0.23922 15.0299 0.67824L24.7799 8.09672C25.5506 8.68314 26 9.57159 26 10.5113V22.909C26 23.7288 25.6576 24.515 25.0481 25.0947C24.4386 25.6743 23.612 26 22.75 26H16.25C15.8806 26 15.5263 25.8604 15.2651 25.612C15.0039 25.3636 14.8571 25.0266 14.8571 24.6753V15.4022H11.1429V24.6753C11.1429 25.0266 10.9961 25.3636 10.7349 25.612C10.4737 25.8604 10.1194 26 9.75 26H3.25C2.38805 26 1.5614 25.6743 0.951903 25.0947C0.34241 24.515 0 23.7288 0 22.909V10.5095C0 9.57159 0.449428 8.68314 1.22014 8.09672L10.9683 0.67824ZM13.2897 2.74658C13.2074 2.6841 13.1053 2.65007 13 2.65007C12.8947 2.65007 12.7926 2.6841 12.7103 2.74658L2.96029 10.1651C2.90566 10.2066 2.86159 10.2592 2.83137 10.3192C2.80114 10.3791 2.78553 10.4448 2.78571 10.5113V22.909C2.78571 23.1527 2.99371 23.3505 3.25 23.3505H8.35714V14.0774C8.35714 13.7261 8.50389 13.3891 8.7651 13.1407C9.02631 12.8923 9.38059 12.7527 9.75 12.7527H16.25C16.6194 12.7527 16.9737 12.8923 17.2349 13.1407C17.4961 13.3891 17.6429 13.7261 17.6429 14.0774V23.3505H22.75C22.8731 23.3505 22.9912 23.304 23.0783 23.2212C23.1654 23.1384 23.2143 23.0261 23.2143 22.909V10.5095C23.2142 10.4433 23.1984 10.378 23.1682 10.3184C23.138 10.2588 23.0941 10.2064 23.0397 10.1651L13.2897 2.74658Z" fill="#A20103"/>
</svg>
