<svg width="27" height="26" viewBox="0 0 27 26" fill="none" xmlns="http://www.w3.org/2000/svg">
<path d="M2.75 12.8855V20.7497C2.75 21.8543 3.64543 22.7497 4.75 22.7497H8.75C9.02614 22.7497 9.25 22.5259 9.25 22.2497V17.6822V17.4997C9.25 15.1525 11.1528 13.2497 13.5 13.2497C15.8472 13.2497 17.75 15.1525 17.75 17.4997V17.6822V22.2497C17.75 22.5259 17.9739 22.7497 18.25 22.7497H22.25C23.3546 22.7497 24.25 21.8543 24.25 20.7497V12.8855C24.25 11.3765 23.5685 9.94814 22.3954 8.99882L16.6454 4.34539C14.8112 2.86094 12.1888 2.86094 10.3546 4.34539L4.60455 8.99882C3.43153 9.94814 2.75 11.3765 2.75 12.8855Z" fill="#A20103" stroke="#A20103" stroke-width="2.5" stroke-linecap="round"/>
</svg>
