<svg width="28" height="28" viewBox="0 0 104 143" fill="none" xmlns="http://www.w3.org/2000/svg">
<path fill-rule="evenodd" clip-rule="evenodd" d="M65.2122 13.1016V14.9722C83.8712 20.5254 97.4774 37.8102 97.4774 58.2729V103.444H103.93V116.35H0.681717V103.444H7.13476V58.2729C7.13476 37.8102 20.7411 20.5254 39.4 14.9722V13.1016C39.4 5.97374 45.1781 0.195484 52.3061 0.195484C59.4341 0.195484 65.2122 5.97374 65.2122 13.1016ZM20.0409 103.444H84.5713V58.2729C84.5713 40.4533 70.1255 26.0077 52.3061 26.0077C34.4865 26.0077 20.0409 40.4533 20.0409 58.2729V103.444ZM65.2122 129.256V122.803H39.4V129.256C39.4 136.384 45.1781 142.163 52.3061 142.163C59.4341 142.163 65.2122 136.384 65.2122 129.256Z" fill="#B01313"/>
</svg>
