<svg width="21" height="20" viewBox="0 0 21 20" fill="none" xmlns="http://www.w3.org/2000/svg">
<g clip-path="url(#clip0_4_1920)">
<path d="M17.165 7.90413C16.944 7.90413 16.732 7.99193 16.5757 8.14821C16.4195 8.30449 16.3317 8.51645 16.3317 8.73746V12.2608C16.3308 12.9832 16.0434 13.6758 15.5326 14.1867C15.0217 14.6975 14.3291 14.9849 13.6067 14.9858H9.17917L10.6717 13.4966C10.8237 13.3397 10.908 13.1293 10.9064 12.9108C10.9048 12.6923 10.8175 12.4831 10.6632 12.3284C10.5089 12.1737 10.3 12.0857 10.0815 12.0835C9.86301 12.0813 9.65238 12.165 9.495 12.3166L6.575 15.2291C6.41871 15.3854 6.33063 15.5973 6.33 15.8183V15.8191C6.33 15.8383 6.34 15.8541 6.34083 15.8733C6.3453 16.0758 6.42945 16.2683 6.575 16.4091L9.49333 19.3291C9.6505 19.4809 9.861 19.5649 10.0795 19.563C10.298 19.5611 10.507 19.4735 10.6615 19.319C10.816 19.1645 10.9037 18.9555 10.9056 18.737C10.9075 18.5185 10.8235 18.308 10.6717 18.1508L9.17417 16.6525H13.6058C14.7702 16.6511 15.8864 16.188 16.7097 15.3647C17.5331 14.5414 17.9962 13.4251 17.9975 12.2608V8.73746C17.9975 8.51645 17.9097 8.30449 17.7534 8.14821C17.5971 7.99193 17.386 7.90413 17.165 7.90413ZM11.8233 4.9908L10.3275 6.48663C10.2479 6.5635 10.1844 6.65546 10.1407 6.75713C10.0971 6.8588 10.0741 6.96815 10.0731 7.0788C10.0722 7.18945 10.0932 7.29918 10.1351 7.40159C10.177 7.50401 10.2389 7.59705 10.3172 7.67529C10.3954 7.75354 10.4885 7.81541 10.5909 7.85732C10.6933 7.89922 10.803 7.9203 10.9137 7.91934C11.0243 7.91838 11.1337 7.89539 11.2353 7.85171C11.337 7.80804 11.429 7.74456 11.5058 7.66496L14.4225 4.7483C14.5789 4.5916 14.6667 4.37926 14.6667 4.15788C14.6667 3.9365 14.5789 3.72416 14.4225 3.56746L11.5058 0.650797C11.3487 0.498998 11.1382 0.415003 10.9197 0.416902C10.7012 0.4188 10.4922 0.506441 10.3377 0.660948C10.1831 0.815455 10.0955 1.02447 10.0936 1.24296C10.0917 1.46146 10.1757 1.67196 10.3275 1.82913L11.8225 3.32413H7.39167C6.2274 3.32567 5.11126 3.78886 4.28799 4.61212C3.46473 5.43539 3.00154 6.55153 3 7.7158V11.24C3 11.461 3.0878 11.6729 3.24408 11.8292C3.40036 11.9855 3.61232 12.0733 3.83333 12.0733C4.05435 12.0733 4.26631 11.9855 4.42259 11.8292C4.57887 11.6729 4.66667 11.461 4.66667 11.24V7.7158C4.66777 6.99328 4.95534 6.30068 5.46631 5.78985C5.97729 5.27903 6.66998 4.99168 7.3925 4.9908H11.8233Z" fill="black"/>
</g>
<defs>
<clipPath id="clip0_4_1920">
<rect width="20" height="20" fill="white" transform="translate(0.5 -0.0100098)"/>
</clipPath>
</defs>
</svg>
