<svg width="27" height="26" viewBox="0 0 27 26" fill="none" xmlns="http://www.w3.org/2000/svg">
<path fill-rule="evenodd" clip-rule="evenodd" d="M4 11.5C4 7.08172 7.58172 3.5 12 3.5C16.4183 3.5 20 7.08172 20 11.5C20 15.9183 16.4183 19.5 12 19.5C7.58172 19.5 4 15.9183 4 11.5ZM12 1C6.20101 1 1.5 5.70101 1.5 11.5C1.5 17.299 6.20101 22 12 22C14.449 22 16.7023 21.1615 18.4883 19.756L22.8661 24.1339C23.3543 24.622 24.1457 24.622 24.6339 24.1339C25.122 23.6457 25.122 22.8543 24.6339 22.3661L20.256 17.9883C21.6615 16.2023 22.5 13.949 22.5 11.5C22.5 5.70101 17.799 1 12 1Z" fill="#A20103"/>
</svg>
