<svg width="846" height="169" viewBox="0 0 846 169" fill="none" xmlns="http://www.w3.org/2000/svg">
<path d="M124.945 82.8166L80.5077 145.239L66.9846 32.6992L124.945 82.8166Z" fill="#C53B27"/>
<path d="M119.311 29.0095L125.032 82.739L65.3898 32.4931L119.311 29.0095Z" fill="#A20103"/>
<path d="M65.6084 32.3654L125.202 82.6826L11.5647 88.6012L65.6084 32.3654Z" fill="#A20103"/>
<path d="M64.8122 132.225L17.9898 155.279L31.234 103.631L64.8122 103.631L64.8122 132.225Z" fill="#852416"/>
<path d="M124.945 82.8166L80.5077 145.239L66.9846 32.6992L124.945 82.8166Z" fill="#C53B27"/>
<path d="M119.311 29.0095L125.032 82.739L65.3898 32.4931L119.311 29.0095Z" fill="#A20103"/>
<path d="M65.6084 32.3654L125.202 82.6826L11.5647 88.6012L65.6084 32.3654Z" fill="#A20103"/>
<path d="M64.8122 132.225L17.9898 155.279L31.234 103.631L64.8122 103.631L64.8122 132.225Z" fill="#852416"/>
<path d="M189.689 123.233C184.289 123.233 179.256 122.366 174.589 120.633C169.989 118.833 165.989 116.299 162.589 113.033C159.189 109.766 156.522 105.933 154.589 101.533C152.722 97.1326 151.789 92.2993 151.789 87.0326C151.789 81.7659 152.722 76.9326 154.589 72.5326C156.522 68.1326 159.189 64.2993 162.589 61.0326C166.056 57.7659 170.089 55.2659 174.689 53.5326C179.289 51.7326 184.322 50.8326 189.789 50.8326C195.856 50.8326 201.322 51.8993 206.189 54.0326C211.122 56.0993 215.256 59.1659 218.589 63.2326L208.189 72.8326C205.789 70.0993 203.122 68.0659 200.189 66.7326C197.256 65.3326 194.056 64.6326 190.589 64.6326C187.322 64.6326 184.322 65.1659 181.589 66.2326C178.856 67.2993 176.489 68.8326 174.489 70.8326C172.489 72.8326 170.922 75.1993 169.789 77.9326C168.722 80.6659 168.189 83.6993 168.189 87.0326C168.189 90.3659 168.722 93.3993 169.789 96.1326C170.922 98.8659 172.489 101.233 174.489 103.233C176.489 105.233 178.856 106.766 181.589 107.833C184.322 108.899 187.322 109.433 190.589 109.433C194.056 109.433 197.256 108.766 200.189 107.433C203.122 106.033 205.789 103.933 208.189 101.133L218.589 110.733C215.256 114.799 211.122 117.899 206.189 120.033C201.322 122.166 195.822 123.233 189.689 123.233ZM228.429 122.033V68.2326H243.329V83.4326L241.229 79.0326C242.829 75.2326 245.396 72.3659 248.929 70.4326C252.462 68.4326 256.762 67.4326 261.829 67.4326V81.8326C261.162 81.7659 260.562 81.7326 260.029 81.7326C259.496 81.6659 258.929 81.6326 258.329 81.6326C254.062 81.6326 250.596 82.8659 247.929 85.3326C245.329 87.7326 244.029 91.4993 244.029 96.6326V122.033H228.429ZM297.414 122.833C291.281 122.833 285.881 121.633 281.214 119.233C276.614 116.833 273.047 113.566 270.514 109.433C267.981 105.233 266.714 100.466 266.714 95.1326C266.714 89.7326 267.947 84.9659 270.414 80.8326C272.947 76.6326 276.381 73.3659 280.714 71.0326C285.047 68.6326 289.947 67.4326 295.414 67.4326C300.681 67.4326 305.414 68.5659 309.614 70.8326C313.881 73.0326 317.247 76.2326 319.714 80.4326C322.181 84.5659 323.414 89.5326 323.414 95.3326C323.414 95.9326 323.381 96.6326 323.314 97.4326C323.247 98.1659 323.181 98.8659 323.114 99.5326H279.414V90.4326H314.914L308.914 93.1326C308.914 90.3326 308.347 87.8993 307.214 85.8326C306.081 83.7659 304.514 82.1659 302.514 81.0326C300.514 79.8326 298.181 79.2326 295.514 79.2326C292.847 79.2326 290.481 79.8326 288.414 81.0326C286.414 82.1659 284.847 83.7993 283.714 85.9326C282.581 87.9993 282.014 90.4659 282.014 93.3326V95.7326C282.014 98.6659 282.647 101.266 283.914 103.533C285.247 105.733 287.081 107.433 289.414 108.633C291.814 109.766 294.614 110.333 297.814 110.333C300.681 110.333 303.181 109.899 305.314 109.033C307.514 108.166 309.514 106.866 311.314 105.133L319.614 114.133C317.147 116.933 314.047 119.099 310.314 120.633C306.581 122.099 302.281 122.833 297.414 122.833ZM365.335 122.033V111.533L364.335 109.233V90.4326C364.335 87.0993 363.302 84.4993 361.235 82.6326C359.235 80.7659 356.135 79.8326 351.935 79.8326C349.068 79.8326 346.235 80.2993 343.435 81.2326C340.702 82.0993 338.368 83.2993 336.435 84.8326L330.835 73.9326C333.768 71.8659 337.302 70.2659 341.435 69.1326C345.568 67.9993 349.768 67.4326 354.035 67.4326C362.235 67.4326 368.602 69.3659 373.135 73.2326C377.668 77.0993 379.935 83.1326 379.935 91.3326V122.033H365.335ZM348.935 122.833C344.735 122.833 341.135 122.133 338.135 120.733C335.135 119.266 332.835 117.299 331.235 114.833C329.635 112.366 328.835 109.599 328.835 106.533C328.835 103.333 329.602 100.533 331.135 98.1326C332.735 95.7326 335.235 93.8659 338.635 92.5326C342.035 91.1326 346.468 90.4326 351.935 90.4326H366.235V99.5326H353.635C349.968 99.5326 347.435 100.133 346.035 101.333C344.702 102.533 344.035 104.033 344.035 105.833C344.035 107.833 344.802 109.433 346.335 110.633C347.935 111.766 350.102 112.333 352.835 112.333C355.435 112.333 357.768 111.733 359.835 110.533C361.902 109.266 363.402 107.433 364.335 105.033L366.735 112.233C365.602 115.699 363.535 118.333 360.535 120.133C357.535 121.933 353.668 122.833 348.935 122.833ZM395.154 122.033V52.0326H411.354V108.833H446.454V122.033H395.154ZM454.405 122.033V68.2326H470.005V122.033H454.405ZM462.205 60.7326C459.339 60.7326 457.005 59.8993 455.205 58.2326C453.405 56.5659 452.505 54.4993 452.505 52.0326C452.505 49.5659 453.405 47.4993 455.205 45.8326C457.005 44.1659 459.339 43.3326 462.205 43.3326C465.072 43.3326 467.405 44.1326 469.205 45.7326C471.005 47.2659 471.905 49.2659 471.905 51.7326C471.905 54.3326 471.005 56.4993 469.205 58.2326C467.472 59.8993 465.139 60.7326 462.205 60.7326ZM517.184 67.4326C521.45 67.4326 525.25 68.2993 528.584 70.0326C531.984 71.6993 534.65 74.2993 536.584 77.8326C538.517 81.2993 539.484 85.7659 539.484 91.2326V122.033H523.884V93.6326C523.884 89.2993 522.917 86.0993 520.984 84.0326C519.117 81.9659 516.45 80.9326 512.984 80.9326C510.517 80.9326 508.284 81.4659 506.284 82.5326C504.35 83.5326 502.817 85.0993 501.684 87.2326C500.617 89.3659 500.084 92.0993 500.084 95.4326V122.033H484.484V68.2326H499.384V83.1326L496.584 78.6326C498.517 75.0326 501.284 72.2659 504.884 70.3326C508.484 68.3993 512.584 67.4326 517.184 67.4326ZM566.524 111.033L566.924 92.0326L592.024 68.2326H610.624L586.524 92.7326L578.424 99.3326L566.524 111.033ZM553.624 122.033V47.8326H569.224V122.033H553.624ZM593.724 122.033L575.524 99.4326L585.324 87.3326L612.624 122.033H593.724Z" fill="black"/>
</svg>
